<?xml version="1.0" encoding="UTF-8" standalone="no"?>
<svg
   width="460.79999pt"
   height="365.10364pt"
   viewBox="0 0 460.8 365.10363"
   version="1.1"
   id="svg86"
   sodipodi:docname="prob_left.svg"
   inkscape:version="1.3 (0e150ed, 2023-07-21)"
   xmlns:inkscape="http://www.inkscape.org/namespaces/inkscape"
   xmlns:sodipodi="http://sodipodi.sourceforge.net/DTD/sodipodi-0.dtd"
   xmlns:xlink="http://www.w3.org/1999/xlink"
   xmlns="http://www.w3.org/2000/svg"
   xmlns:svg="http://www.w3.org/2000/svg"
   xmlns:rdf="http://www.w3.org/1999/02/22-rdf-syntax-ns#"
   xmlns:cc="http://creativecommons.org/ns#"
   xmlns:dc="http://purl.org/dc/elements/1.1/">
  <sodipodi:namedview
     id="namedview86"
     pagecolor="#ffffff"
     bordercolor="#000000"
     borderopacity="0.25"
     inkscape:showpageshadow="2"
     inkscape:pageopacity="0.0"
     inkscape:pagecheckerboard="0"
     inkscape:deskcolor="#d1d1d1"
     inkscape:document-units="pt"
     inkscape:zoom="0.38411459"
     inkscape:cx="308.50169"
     inkscape:cy="230.39999"
     inkscape:window-width="1800"
     inkscape:window-height="1130"
     inkscape:window-x="0"
     inkscape:window-y="39"
     inkscape:window-maximized="0"
     inkscape:current-layer="svg86" />
  <metadata
     id="metadata1">
    <rdf:RDF>
      <cc:Work>
        <dc:type
           rdf:resource="http://purl.org/dc/dcmitype/StillImage" />
        <dc:date>2026-05-27T11:56:36.689940</dc:date>
        <dc:format>image/svg+xml</dc:format>
        <dc:creator>
          <cc:Agent>
            <dc:title>Matplotlib v3.10.9, https://matplotlib.org/</dc:title>
          </cc:Agent>
        </dc:creator>
      </cc:Work>
    </rdf:RDF>
  </metadata>
  <defs
     id="defs1">
    <style
       type="text/css"
       id="style1">*{stroke-linejoin: round; stroke-linecap: butt}</style>
  </defs>
  <defs
     id="defs86">
    <clipPath
       id="p83177941b3">
      <rect
         x="57.599998"
         y="41.472"
         width="357.12"
         height="266.112"
         id="rect86" />
    </clipPath>
  </defs>
  <g
     id="figure_1"
     transform="scale(0.99999998,1.0106156)"
     style="stroke-width:0.994734">
    <g
       id="patch_1"
       style="stroke-width:0.994734">
      <path
         d="M 0,345.6 H 460.8 V 0 H 0 Z"
         style="fill:#ffffff;stroke-width:0.994734"
         id="path1" />
    </g>
    <g
       id="axes_1"
       style="stroke-width:0.994734">
      <g
         id="patch_2"
         style="stroke-width:0.994734">
        <path
           d="M 57.6,307.584 H 414.72 V 41.472 H 57.6 Z"
           style="fill:#ffffff;stroke-width:0.994734"
           id="path2" />
      </g>
      <g
         id="matplotlib.axis_1"
         style="stroke-width:0.994734">
        <g
           id="xtick_1"
           style="stroke-width:0.994734">
          <g
             id="line2d_1"
             style="stroke-width:0.994734">
            <defs
               id="defs2">
              <path
                 id="mc1afa47c26"
                 d="M 0,0 V 6"
                 style="stroke:#262626;stroke-width:1.25" />
            </defs>
            <g
               id="g2"
               style="stroke-width:0.994734">
              <use
                 xlink:href="#mc1afa47c26"
                 x="73.832726"
                 y="307.58401"
                 style="fill:#262626;stroke:#262626;stroke-width:1.24342"
                 id="use2" />
            </g>
          </g>
          <g
             id="text_1"
             style="stroke-width:0.994734">
            <!-- 0 -->
            <g
               style="fill:#262626;stroke-width:0.994734"
               transform="matrix(0.165,0,0,-0.165,69.244954,328.89439)"
               id="g3">
              <defs
                 id="defs3">
                <path
                   id="ArialMT-30"
                   d="m 266,2259 q 0,813 167,1308 167,496 496,764 330,269 830,269 369,0 647,-149 278,-148 459,-428 182,-279 285,-681 103,-401 103,-1083 0,-806 -166,-1301 Q 2922,463 2592,192 2263,-78 1759,-78 1097,-78 719,397 266,969 266,2259 Z m 578,0 q 0,-1128 264,-1502 264,-373 651,-373 388,0 652,375 264,375 264,1500 0,1132 -264,1503 -264,372 -658,372 -387,0 -619,-328 Q 844,3388 844,2259 Z"
                   transform="scale(0.015625)" />
              </defs>
              <use
                 xlink:href="#ArialMT-30"
                 id="use3"
                 style="stroke-width:0.994734" />
            </g>
          </g>
        </g>
        <g
           id="xtick_2"
           style="stroke-width:0.994734">
          <g
             id="line2d_2"
             style="stroke-width:0.994734">
            <g
               id="g4"
               style="stroke-width:0.994734">
              <use
                 xlink:href="#mc1afa47c26"
                 x="128.12279"
                 y="307.58401"
                 style="fill:#262626;stroke:#262626;stroke-width:1.24342"
                 id="use4" />
            </g>
          </g>
          <g
             id="text_2"
             style="stroke-width:0.994734">
            <!-- 50 -->
            <g
               style="fill:#262626;stroke-width:0.994734"
               transform="matrix(0.165,0,0,-0.165,118.94724,328.89439)"
               id="g6">
              <defs
                 id="defs4">
                <path
                   id="ArialMT-35"
                   d="m 266,1200 590,50 q 66,-431 305,-649 239,-217 577,-217 406,0 687,306 281,307 281,813 0,481 -270,759 -270,279 -708,279 -272,0 -491,-124 -218,-123 -343,-320 l -528,69 443,2353 H 3088 V 3981 H 1259 L 1013,2750 q 412,288 865,288 600,0 1012,-416 413,-416 413,-1069 Q 3303,931 2941,478 2500,-78 1738,-78 1113,-78 717,272 322,622 266,1200 Z"
                   transform="scale(0.015625)" />
              </defs>
              <use
                 xlink:href="#ArialMT-35"
                 id="use5"
                 style="stroke-width:0.994734" />
              <use
                 xlink:href="#ArialMT-30"
                 transform="translate(55.615234)"
                 id="use6"
                 style="stroke-width:0.994734" />
            </g>
          </g>
        </g>
        <g
           id="xtick_3"
           style="stroke-width:0.994734">
          <g
             id="line2d_3"
             style="stroke-width:0.994734">
            <g
               id="g7"
               style="stroke-width:0.994734">
              <use
                 xlink:href="#mc1afa47c26"
                 x="182.41284"
                 y="307.58401"
                 style="fill:#262626;stroke:#262626;stroke-width:1.24342"
                 id="use7" />
            </g>
          </g>
          <g
             id="text_3"
             style="stroke-width:0.994734">
            <!-- 100 -->
            <g
               style="fill:#262626;stroke-width:0.994734"
               transform="matrix(0.165,0,0,-0.165,168.64952,328.89439)"
               id="g10">
              <defs
                 id="defs7">
                <path
                   id="ArialMT-31"
                   d="M 2384,0 H 1822 V 3584 Q 1619,3391 1289,3197 959,3003 697,2906 v 544 q 472,222 825,537 353,316 500,613 h 362 z"
                   transform="scale(0.015625)" />
              </defs>
              <use
                 xlink:href="#ArialMT-31"
                 id="use8"
                 style="stroke-width:0.994734" />
              <use
                 xlink:href="#ArialMT-30"
                 transform="translate(55.615234)"
                 id="use9"
                 style="stroke-width:0.994734" />
              <use
                 xlink:href="#ArialMT-30"
                 transform="translate(111.23047)"
                 id="use10"
                 style="stroke-width:0.994734" />
            </g>
          </g>
        </g>
        <g
           id="xtick_4"
           style="stroke-width:0.994734">
          <g
             id="line2d_4"
             style="stroke-width:0.994734">
            <g
               id="g11"
               style="stroke-width:0.994734">
              <use
                 xlink:href="#mc1afa47c26"
                 x="236.7029"
                 y="307.58401"
                 style="fill:#262626;stroke:#262626;stroke-width:1.24342"
                 id="use11" />
            </g>
          </g>
          <g
             id="text_4"
             style="stroke-width:0.994734">
            <!-- 150 -->
            <g
               style="fill:#262626;stroke-width:0.994734"
               transform="matrix(0.165,0,0,-0.165,222.93958,328.89439)"
               id="g14">
              <use
                 xlink:href="#ArialMT-31"
                 id="use12"
                 style="stroke-width:0.994734" />
              <use
                 xlink:href="#ArialMT-35"
                 transform="translate(55.615234)"
                 id="use13"
                 style="stroke-width:0.994734" />
              <use
                 xlink:href="#ArialMT-30"
                 transform="translate(111.23047)"
                 id="use14"
                 style="stroke-width:0.994734" />
            </g>
          </g>
        </g>
        <g
           id="xtick_5"
           style="stroke-width:0.994734">
          <g
             id="line2d_5"
             style="stroke-width:0.994734">
            <g
               id="g15"
               style="stroke-width:0.994734">
              <use
                 xlink:href="#mc1afa47c26"
                 x="290.99295"
                 y="307.58401"
                 style="fill:#262626;stroke:#262626;stroke-width:1.24342"
                 id="use15" />
            </g>
          </g>
          <g
             id="text_5"
             style="stroke-width:0.994734">
            <!-- 200 -->
            <g
               style="fill:#262626;stroke-width:0.994734"
               transform="matrix(0.165,0,0,-0.165,277.22964,328.89439)"
               id="g18">
              <defs
                 id="defs15">
                <path
                   id="ArialMT-32"
                   d="M 3222,541 V 0 H 194 q -6,203 65,391 116,309 370,609 255,300 737,694 747,612 1009,970 263,358 263,677 0,334 -240,563 -239,230 -623,230 -406,0 -650,-244 -244,-243 -247,-674 l -578,59 q 59,647 446,986 388,339 1042,339 659,0 1043,-366 385,-365 385,-906 0,-275 -113,-541 Q 2991,2522 2730,2228 2469,1934 1863,1422 1356,997 1212,845 1069,694 975,541 Z"
                   transform="scale(0.015625)" />
              </defs>
              <use
                 xlink:href="#ArialMT-32"
                 id="use16"
                 style="stroke-width:0.994734" />
              <use
                 xlink:href="#ArialMT-30"
                 transform="translate(55.615234)"
                 id="use17"
                 style="stroke-width:0.994734" />
              <use
                 xlink:href="#ArialMT-30"
                 transform="translate(111.23047)"
                 id="use18"
                 style="stroke-width:0.994734" />
            </g>
          </g>
        </g>
        <g
           id="xtick_6"
           style="stroke-width:0.994734">
          <g
             id="line2d_6"
             style="stroke-width:0.994734">
            <g
               id="g19"
               style="stroke-width:0.994734">
              <use
                 xlink:href="#mc1afa47c26"
                 x="345.28302"
                 y="307.58401"
                 style="fill:#262626;stroke:#262626;stroke-width:1.24342"
                 id="use19" />
            </g>
          </g>
          <g
             id="text_6"
             style="stroke-width:0.994734">
            <!-- 250 -->
            <g
               style="fill:#262626;stroke-width:0.994734"
               transform="matrix(0.165,0,0,-0.165,331.5197,328.89439)"
               id="g22">
              <use
                 xlink:href="#ArialMT-32"
                 id="use20"
                 style="stroke-width:0.994734" />
              <use
                 xlink:href="#ArialMT-35"
                 transform="translate(55.615234)"
                 id="use21"
                 style="stroke-width:0.994734" />
              <use
                 xlink:href="#ArialMT-30"
                 transform="translate(111.23047)"
                 id="use22"
                 style="stroke-width:0.994734" />
            </g>
          </g>
        </g>
        <g
           id="xtick_7"
           style="stroke-width:0.994734">
          <g
             id="line2d_7"
             style="stroke-width:0.994734">
            <g
               id="g23"
               style="stroke-width:0.994734">
              <use
                 xlink:href="#mc1afa47c26"
                 x="399.57306"
                 y="307.58401"
                 style="fill:#262626;stroke:#262626;stroke-width:1.24342"
                 id="use23" />
            </g>
          </g>
          <g
             id="text_7"
             style="stroke-width:0.994734">
            <!-- 300 -->
            <g
               style="fill:#262626;stroke-width:0.994734"
               transform="matrix(0.165,0,0,-0.165,385.80975,328.89439)"
               id="g26">
              <defs
                 id="defs23">
                <path
                   id="ArialMT-33"
                   d="m 269,1209 562,75 q 97,-478 330,-689 233,-211 567,-211 397,0 670,275 274,275 274,682 0,387 -253,638 -253,252 -644,252 -159,0 -397,-62 l 63,494 q 56,-7 90,-7 360,0 647,187 288,188 288,579 0,309 -210,512 -209,204 -540,204 -328,0 -547,-207 -219,-206 -281,-618 l -563,100 q 103,565 468,876 366,311 910,311 375,0 690,-161 316,-161 483,-439 168,-278 168,-591 0,-296 -160,-540 -159,-244 -471,-388 406,-93 631,-389 225,-295 225,-739 Q 3269,753 2831,336 2394,-81 1725,-81 1122,-81 723,278 325,638 269,1209 Z"
                   transform="scale(0.015625)" />
              </defs>
              <use
                 xlink:href="#ArialMT-33"
                 id="use24"
                 style="stroke-width:0.994734" />
              <use
                 xlink:href="#ArialMT-30"
                 transform="translate(55.615234)"
                 id="use25"
                 style="stroke-width:0.994734" />
              <use
                 xlink:href="#ArialMT-30"
                 transform="translate(111.23047)"
                 id="use26"
                 style="stroke-width:0.994734" />
            </g>
          </g>
        </g>
        <g
           id="text_8"
           style="stroke-width:0.994734">
          <!-- Trial number -->
          <g
             style="fill:#262626;stroke-width:0.994734"
             transform="matrix(0.18,0,0,-0.18,185.98641,349.05783)"
             id="g38">
            <defs
               id="defs26">
              <path
                 id="ArialMT-54"
                 d="M 1659,0 V 4041 H 150 v 540 H 3781 V 4041 H 2266 V 0 Z"
                 transform="scale(0.015625)" />
              <path
                 id="ArialMT-72"
                 d="m 416,0 v 3319 h 506 v -503 q 194,353 358,465 164,113 361,113 284,0 578,-181 l -194,-522 q -206,122 -412,122 -185,0 -332,-111 -147,-111 -209,-308 -94,-300 -94,-656 V 0 Z"
                 transform="scale(0.015625)" />
              <path
                 id="ArialMT-69"
                 d="m 425,3934 v 647 H 988 V 3934 Z M 425,0 V 3319 H 988 V 0 Z"
                 transform="scale(0.015625)" />
              <path
                 id="ArialMT-61"
                 d="M 2588,409 Q 2275,144 1986,34 1697,-75 1366,-75 819,-75 525,192 231,459 231,875 q 0,244 111,445 111,202 291,324 180,122 405,184 165,44 500,85 681,81 1003,193 3,116 3,147 0,344 -160,485 -215,190 -640,190 -397,0 -586,-139 -189,-139 -280,-492 l -550,75 q 75,353 247,570 172,217 497,334 325,118 753,118 425,0 690,-100 266,-100 391,-252 125,-151 175,-383 28,-143 28,-518 v -750 q 0,-785 36,-993 36,-207 143,-398 h -588 q -87,175 -112,409 z m -47,1257 q -307,-125 -919,-213 -347,-50 -491,-113 -143,-62 -222,-182 -78,-120 -78,-267 0,-225 170,-375 171,-150 499,-150 325,0 578,142 253,142 372,389 91,191 91,562 z"
                 transform="scale(0.015625)" />
              <path
                 id="ArialMT-6c"
                 d="M 409,0 V 4581 H 972 V 0 Z"
                 transform="scale(0.015625)" />
              <path
                 id="ArialMT-20"
                 transform="scale(0.015625)"
                 d="" />
              <path
                 id="ArialMT-6e"
                 d="m 422,0 v 3319 h 506 v -472 q 366,547 1056,547 300,0 552,-108 252,-108 377,-283 125,-175 175,-415 31,-157 31,-547 V 0 h -563 v 2019 q 0,344 -66,514 -65,170 -232,271 -167,102 -392,102 -360,0 -621,-228 Q 984,2450 984,1813 V 0 Z"
                 transform="scale(0.015625)" />
              <path
                 id="ArialMT-75"
                 d="M 2597,0 V 488 Q 2209,-75 1544,-75 1250,-75 995,37 741,150 617,320 494,491 444,738 409,903 409,1263 V 3319 H 972 V 1478 q 0,-440 34,-594 53,-221 225,-348 172,-127 425,-127 253,0 475,130 222,130 314,353 93,224 93,649 v 1778 h 562 V 0 Z"
                 transform="scale(0.015625)" />
              <path
                 id="ArialMT-6d"
                 d="m 422,0 v 3319 h 503 v -466 q 156,244 415,392 260,149 591,149 369,0 605,-153 236,-153 333,-428 394,581 1025,581 494,0 759,-274 266,-273 266,-842 V 0 h -560 v 2091 q 0,337 -55,485 -54,149 -198,239 -143,91 -337,91 -350,0 -582,-233 -231,-232 -231,-745 V 0 h -562 v 2156 q 0,375 -138,562 -137,188 -450,188 -237,0 -439,-125 -201,-125 -292,-366 -91,-240 -91,-693 V 0 Z"
                 transform="scale(0.015625)" />
              <path
                 id="ArialMT-62"
                 d="M 941,0 H 419 V 4581 H 981 V 2947 q 357,447 910,447 306,0 579,-124 274,-123 450,-347 177,-223 277,-539 100,-315 100,-675 0,-853 -422,-1319 -422,-465 -1012,-465 -588,0 -922,491 z m -7,1684 q 0,-596 163,-862 266,-434 719,-434 368,0 637,320 269,320 269,955 0,650 -258,959 -258,309 -623,309 -369,0 -638,-320 -269,-320 -269,-927 z"
                 transform="scale(0.015625)" />
              <path
                 id="ArialMT-65"
                 d="m 2694,1069 581,-72 Q 3138,488 2766,206 2394,-75 1816,-75 1088,-75 661,373 234,822 234,1631 q 0,838 431,1300 432,463 1119,463 666,0 1088,-453 422,-453 422,-1275 0,-50 -3,-150 H 816 q 31,-547 309,-838 278,-290 694,-290 309,0 528,162 219,163 347,519 z M 847,1978 h 1853 q -37,419 -212,628 -269,325 -697,325 -388,0 -652,-259 -264,-259 -292,-694 z"
                 transform="scale(0.015625)" />
            </defs>
            <use
               xlink:href="#ArialMT-54"
               id="use27"
               style="stroke-width:0.994734" />
            <use
               xlink:href="#ArialMT-72"
               transform="translate(57.333984)"
               id="use28"
               style="stroke-width:0.994734" />
            <use
               xlink:href="#ArialMT-69"
               transform="translate(90.634766)"
               id="use29"
               style="stroke-width:0.994734" />
            <use
               xlink:href="#ArialMT-61"
               transform="translate(112.85156)"
               id="use30"
               style="stroke-width:0.994734" />
            <use
               xlink:href="#ArialMT-6c"
               transform="translate(168.4668)"
               id="use31"
               style="stroke-width:0.994734" />
            <use
               xlink:href="#ArialMT-20"
               transform="translate(190.68359)"
               id="use32"
               style="stroke-width:0.994734" />
            <use
               xlink:href="#ArialMT-6e"
               transform="translate(218.4668)"
               id="use33"
               style="stroke-width:0.994734" />
            <use
               xlink:href="#ArialMT-75"
               transform="translate(274.08203)"
               id="use34"
               style="stroke-width:0.994734" />
            <use
               xlink:href="#ArialMT-6d"
               transform="translate(329.69727)"
               id="use35"
               style="stroke-width:0.994734" />
            <use
               xlink:href="#ArialMT-62"
               transform="translate(412.99805)"
               id="use36"
               style="stroke-width:0.994734" />
            <use
               xlink:href="#ArialMT-65"
               transform="translate(468.61328)"
               id="use37"
               style="stroke-width:0.994734" />
            <use
               xlink:href="#ArialMT-72"
               transform="translate(524.22852)"
               id="use38"
               style="stroke-width:0.994734" />
          </g>
        </g>
      </g>
      <g
         id="matplotlib.axis_2"
         style="stroke-width:0.994734">
        <g
           id="ytick_1"
           style="stroke-width:0.994734">
          <g
             id="line2d_8"
             style="stroke-width:0.994734">
            <defs
               id="defs38">
              <path
                 id="m8ed537eca9"
                 d="M 0,0 H -6"
                 style="stroke:#262626;stroke-width:1.25" />
            </defs>
            <g
               id="g39"
               style="stroke-width:0.994734">
              <use
                 xlink:href="#m8ed537eca9"
                 x="57.599998"
                 y="295.48801"
                 style="fill:#262626;stroke:#262626;stroke-width:1.24342"
                 id="use39" />
            </g>
          </g>
          <g
             id="text_9"
             style="stroke-width:0.994734">
            <!-- 20 -->
            <g
               style="fill:#262626;stroke-width:0.994734"
               transform="matrix(0.165,0,0,-0.165,29.748906,301.39319)"
               id="g41">
              <use
                 xlink:href="#ArialMT-32"
                 id="use40"
                 style="stroke-width:0.994734" />
              <use
                 xlink:href="#ArialMT-30"
                 transform="translate(55.615234)"
                 id="use41"
                 style="stroke-width:0.994734" />
            </g>
          </g>
        </g>
        <g
           id="ytick_2"
           style="stroke-width:0.994734">
          <g
             id="line2d_9"
             style="stroke-width:0.994734">
            <g
               id="g42"
               style="stroke-width:0.994734">
              <use
                 xlink:href="#m8ed537eca9"
                 x="57.599998"
                 y="255.168"
                 style="fill:#262626;stroke:#262626;stroke-width:1.24342"
                 id="use42" />
            </g>
          </g>
          <g
             id="text_10"
             style="stroke-width:0.994734">
            <!-- 30 -->
            <g
               style="fill:#262626;stroke-width:0.994734"
               transform="matrix(0.165,0,0,-0.165,29.748906,261.07319)"
               id="g44">
              <use
                 xlink:href="#ArialMT-33"
                 id="use43"
                 style="stroke-width:0.994734" />
              <use
                 xlink:href="#ArialMT-30"
                 transform="translate(55.615234)"
                 id="use44"
                 style="stroke-width:0.994734" />
            </g>
          </g>
        </g>
        <g
           id="ytick_3"
           style="stroke-width:0.994734">
          <g
             id="line2d_10"
             style="stroke-width:0.994734">
            <g
               id="g45"
               style="stroke-width:0.994734">
              <use
                 xlink:href="#m8ed537eca9"
                 x="57.599998"
                 y="214.84801"
                 style="fill:#262626;stroke:#262626;stroke-width:1.24342"
                 id="use45" />
            </g>
          </g>
          <g
             id="text_11"
             style="stroke-width:0.994734">
            <!-- 40 -->
            <g
               style="fill:#262626;stroke-width:0.994734"
               transform="matrix(0.165,0,0,-0.165,29.748906,220.75319)"
               id="g47">
              <defs
                 id="defs45">
                <path
                   id="ArialMT-34"
                   d="M 2069,0 V 1097 H 81 v 516 l 2091,2968 h 459 V 1613 h 619 V 1097 H 2631 V 0 Z m 0,1613 V 3678 L 634,1613 Z"
                   transform="scale(0.015625)" />
              </defs>
              <use
                 xlink:href="#ArialMT-34"
                 id="use46"
                 style="stroke-width:0.994734" />
              <use
                 xlink:href="#ArialMT-30"
                 transform="translate(55.615234)"
                 id="use47"
                 style="stroke-width:0.994734" />
            </g>
          </g>
        </g>
        <g
           id="ytick_4"
           style="stroke-width:0.994734">
          <g
             id="line2d_11"
             style="stroke-width:0.994734">
            <g
               id="g48"
               style="stroke-width:0.994734">
              <use
                 xlink:href="#m8ed537eca9"
                 x="57.599998"
                 y="174.528"
                 style="fill:#262626;stroke:#262626;stroke-width:1.24342"
                 id="use48" />
            </g>
          </g>
          <g
             id="text_12"
             style="stroke-width:0.994734">
            <!-- 50 -->
            <g
               style="fill:#262626;stroke-width:0.994734"
               transform="matrix(0.165,0,0,-0.165,29.748906,180.43319)"
               id="g50">
              <use
                 xlink:href="#ArialMT-35"
                 id="use49"
                 style="stroke-width:0.994734" />
              <use
                 xlink:href="#ArialMT-30"
                 transform="translate(55.615234)"
                 id="use50"
                 style="stroke-width:0.994734" />
            </g>
          </g>
        </g>
        <g
           id="ytick_5"
           style="stroke-width:0.994734">
          <g
             id="line2d_12"
             style="stroke-width:0.994734">
            <g
               id="g51"
               style="stroke-width:0.994734">
              <use
                 xlink:href="#m8ed537eca9"
                 x="57.599998"
                 y="134.20799"
                 style="fill:#262626;stroke:#262626;stroke-width:1.24342"
                 id="use51" />
            </g>
          </g>
          <g
             id="text_13"
             style="stroke-width:0.994734">
            <!-- 60 -->
            <g
               style="fill:#262626;stroke-width:0.994734"
               transform="matrix(0.165,0,0,-0.165,29.748906,140.11319)"
               id="g53">
              <defs
                 id="defs51">
                <path
                   id="ArialMT-36"
                   d="m 3184,3459 -559,-43 q -75,331 -212,481 -229,241 -563,241 -269,0 -472,-150 -265,-194 -419,-566 -153,-372 -159,-1059 203,309 497,459 294,150 616,150 562,0 957,-414 396,-414 396,-1070 0,-432 -186,-802 Q 2894,316 2569,119 2244,-78 1831,-78 1128,-78 684,439 241,956 241,2144 q 0,1328 490,1931 428,525 1153,525 541,0 886,-303 346,-303 414,-838 z M 888,1484 q 0,-290 123,-556 123,-265 345,-405 222,-139 466,-139 356,0 612,287 257,288 257,782 0,475 -254,748 -253,274 -637,274 -381,0 -647,-274 -265,-273 -265,-717 z"
                   transform="scale(0.015625)" />
              </defs>
              <use
                 xlink:href="#ArialMT-36"
                 id="use52"
                 style="stroke-width:0.994734" />
              <use
                 xlink:href="#ArialMT-30"
                 transform="translate(55.615234)"
                 id="use53"
                 style="stroke-width:0.994734" />
            </g>
          </g>
        </g>
        <g
           id="ytick_6"
           style="stroke-width:0.994734">
          <g
             id="line2d_13"
             style="stroke-width:0.994734">
            <g
               id="g54"
               style="stroke-width:0.994734">
              <use
                 xlink:href="#m8ed537eca9"
                 x="57.599998"
                 y="93.888"
                 style="fill:#262626;stroke:#262626;stroke-width:1.24342"
                 id="use54" />
            </g>
          </g>
          <g
             id="text_14"
             style="stroke-width:0.994734">
            <!-- 70 -->
            <g
               style="fill:#262626;stroke-width:0.994734"
               transform="matrix(0.165,0,0,-0.165,29.748906,99.793195)"
               id="g56">
              <defs
                 id="defs54">
                <path
                   id="ArialMT-37"
                   d="m 303,3981 v 541 H 3269 V 4084 Q 2831,3619 2401,2847 1972,2075 1738,1259 1569,684 1522,0 H 944 q 9,541 212,1306 203,766 583,1477 380,711 808,1198 z"
                   transform="scale(0.015625)" />
              </defs>
              <use
                 xlink:href="#ArialMT-37"
                 id="use55"
                 style="stroke-width:0.994734" />
              <use
                 xlink:href="#ArialMT-30"
                 transform="translate(55.615234)"
                 id="use56"
                 style="stroke-width:0.994734" />
            </g>
          </g>
        </g>
        <g
           id="ytick_7"
           style="stroke-width:0.994734">
          <g
             id="line2d_14"
             style="stroke-width:0.994734">
            <g
               id="g57"
               style="stroke-width:0.994734">
              <use
                 xlink:href="#m8ed537eca9"
                 x="57.599998"
                 y="53.568001"
                 style="fill:#262626;stroke:#262626;stroke-width:1.24342"
                 id="use57" />
            </g>
          </g>
          <g
             id="text_15"
             style="stroke-width:0.994734">
            <!-- 80 -->
            <g
               style="fill:#262626;stroke-width:0.994734"
               transform="matrix(0.165,0,0,-0.165,29.748906,59.473195)"
               id="g59">
              <defs
                 id="defs57">
                <path
                   id="ArialMT-38"
                   d="m 1131,2484 q -350,129 -519,366 -168,238 -168,569 0,500 359,840 360,341 956,341 600,0 966,-349 366,-348 366,-848 0,-319 -168,-555 -167,-235 -507,-364 422,-137 642,-444 220,-306 220,-731 0,-587 -416,-987 Q 2447,-78 1769,-78 1091,-78 675,323 259,725 259,1325 q 0,447 227,748 227,302 645,411 z m -112,954 q 0,-325 209,-532 210,-206 544,-206 325,0 533,204 208,205 208,502 0,310 -215,521 -214,211 -532,211 -322,0 -535,-207 -212,-206 -212,-493 z M 838,1322 q 0,-241 114,-466 114,-225 339,-349 225,-123 484,-123 403,0 665,259 263,260 263,660 0,406 -270,672 -270,266 -677,266 -397,0 -658,-263 -260,-262 -260,-656 z"
                   transform="scale(0.015625)" />
              </defs>
              <use
                 xlink:href="#ArialMT-38"
                 id="use58"
                 style="stroke-width:0.994734" />
              <use
                 xlink:href="#ArialMT-30"
                 transform="translate(55.615234)"
                 id="use59"
                 style="stroke-width:0.994734" />
            </g>
          </g>
        </g>
        <g
           id="text_16"
           style="stroke-width:0.994734">
          <!-- P(stimulus on the left) -->
          <g
             style="fill:#262626;stroke-width:0.994734"
             transform="matrix(0,-0.18,-0.18,0,21.960469,261.55659)"
             id="g82">
            <defs
               id="defs59">
              <path
                 id="ArialMT-50"
                 d="m 494,0 v 4581 h 1728 q 456,0 697,-43 337,-57 565,-215 229,-157 368,-442 139,-284 139,-625 0,-584 -372,-989 -372,-404 -1344,-404 H 1100 V 0 Z m 606,2403 h 1184 q 588,0 835,219 247,219 247,616 0,287 -146,491 -145,205 -382,271 -154,41 -566,41 H 1100 Z"
                 transform="scale(0.015625)" />
              <path
                 id="ArialMT-28"
                 d="M 1497,-1347 Q 1031,-759 709,28 388,816 388,1659 q 0,744 240,1425 281,791 869,1575 h 403 Q 1522,4009 1400,3731 1209,3300 1100,2831 966,2247 966,1656 966,153 1900,-1347 Z"
                 transform="scale(0.015625)" />
              <path
                 id="ArialMT-73"
                 d="m 197,991 556,87 q 47,-334 261,-512 214,-178 599,-178 387,0 574,157 188,158 188,371 0,190 -166,300 -115,75 -575,190 -618,157 -857,271 -239,114 -363,315 -123,202 -123,446 0,221 101,410 102,190 277,315 131,96 357,163 227,68 487,68 390,0 685,-113 296,-112 436,-305 141,-192 194,-513 l -550,-75 q -37,256 -217,399 -180,144 -508,144 -387,0 -553,-128 -166,-128 -166,-300 0,-109 69,-197 69,-90 216,-150 84,-31 497,-143 597,-160 832,-262 236,-101 370,-295 135,-193 135,-481 0,-281 -164,-530 Q 2625,197 2315,61 2006,-75 1616,-75 969,-75 630,194 291,463 197,991 Z"
                 transform="scale(0.015625)" />
              <path
                 id="ArialMT-74"
                 d="M 1650,503 1731,6 Q 1494,-44 1306,-44 1000,-44 831,53 663,150 594,308 525,466 525,972 V 2881 H 113 v 438 h 412 v 822 l 559,337 V 3319 h 566 V 2881 H 1084 V 941 q 0,-241 30,-310 30,-68 97,-109 67,-41 192,-41 94,0 247,22 z"
                 transform="scale(0.015625)" />
              <path
                 id="ArialMT-6f"
                 d="m 213,1659 q 0,922 512,1366 428,369 1044,369 684,0 1118,-449 435,-448 435,-1239 0,-640 -192,-1008 Q 2938,331 2570,128 2203,-75 1769,-75 1072,-75 642,372 213,819 213,1659 Z m 578,0 q 0,-637 278,-954 278,-317 700,-317 419,0 697,318 278,319 278,972 0,616 -280,933 -280,317 -695,317 -422,0 -700,-316 -278,-315 -278,-953 z"
                 transform="scale(0.015625)" />
              <path
                 id="ArialMT-68"
                 d="M 422,0 V 4581 H 984 V 2938 q 394,456 994,456 369,0 641,-146 272,-145 389,-401 117,-256 117,-744 V 0 h -562 v 2103 q 0,422 -183,614 -183,192 -517,192 -250,0 -471,-130 -220,-129 -314,-351 -94,-222 -94,-612 V 0 Z"
                 transform="scale(0.015625)" />
              <path
                 id="ArialMT-66"
                 d="M 556,0 V 2881 H 59 v 438 h 497 v 353 q 0,334 60,497 81,219 285,354 205,136 574,136 238,0 525,-56 l -84,-490 q -175,31 -332,31 -256,0 -362,-110 -106,-109 -106,-409 v -306 h 647 V 2881 H 1116 V 0 Z"
                 transform="scale(0.015625)" />
              <path
                 id="ArialMT-29"
                 d="M 791,-1347 H 388 q 934,1500 934,3003 0,588 -134,1166 -107,469 -297,900 -122,281 -503,937 h 403 q 587,-784 868,-1575 241,-681 241,-1425 0,-843 -324,-1631 -323,-787 -785,-1375 z"
                 transform="scale(0.015625)" />
            </defs>
            <use
               xlink:href="#ArialMT-50"
               id="use60"
               style="stroke-width:0.994734" />
            <use
               xlink:href="#ArialMT-28"
               transform="translate(66.699219)"
               id="use61"
               style="stroke-width:0.994734" />
            <use
               xlink:href="#ArialMT-73"
               transform="translate(100)"
               id="use62"
               style="stroke-width:0.994734" />
            <use
               xlink:href="#ArialMT-74"
               transform="translate(150)"
               id="use63"
               style="stroke-width:0.994734" />
            <use
               xlink:href="#ArialMT-69"
               transform="translate(177.7832)"
               id="use64"
               style="stroke-width:0.994734" />
            <use
               xlink:href="#ArialMT-6d"
               transform="translate(200)"
               id="use65"
               style="stroke-width:0.994734" />
            <use
               xlink:href="#ArialMT-75"
               transform="translate(283.30078)"
               id="use66"
               style="stroke-width:0.994734" />
            <use
               xlink:href="#ArialMT-6c"
               transform="translate(338.91602)"
               id="use67"
               style="stroke-width:0.994734" />
            <use
               xlink:href="#ArialMT-75"
               transform="translate(361.13281)"
               id="use68"
               style="stroke-width:0.994734" />
            <use
               xlink:href="#ArialMT-73"
               transform="translate(416.74805)"
               id="use69"
               style="stroke-width:0.994734" />
            <use
               xlink:href="#ArialMT-20"
               transform="translate(466.74805)"
               id="use70"
               style="stroke-width:0.994734" />
            <use
               xlink:href="#ArialMT-6f"
               transform="translate(494.53125)"
               id="use71"
               style="stroke-width:0.994734" />
            <use
               xlink:href="#ArialMT-6e"
               transform="translate(550.14648)"
               id="use72"
               style="stroke-width:0.994734" />
            <use
               xlink:href="#ArialMT-20"
               transform="translate(605.76172)"
               id="use73"
               style="stroke-width:0.994734" />
            <use
               xlink:href="#ArialMT-74"
               transform="translate(633.54492)"
               id="use74"
               style="stroke-width:0.994734" />
            <use
               xlink:href="#ArialMT-68"
               transform="translate(661.32812)"
               id="use75"
               style="stroke-width:0.994734" />
            <use
               xlink:href="#ArialMT-65"
               transform="translate(716.94336)"
               id="use76"
               style="stroke-width:0.994734" />
            <use
               xlink:href="#ArialMT-20"
               transform="translate(772.55859)"
               id="use77"
               style="stroke-width:0.994734" />
            <use
               xlink:href="#ArialMT-6c"
               transform="translate(800.3418)"
               id="use78"
               style="stroke-width:0.994734" />
            <use
               xlink:href="#ArialMT-65"
               transform="translate(822.55859)"
               id="use79"
               style="stroke-width:0.994734" />
            <use
               xlink:href="#ArialMT-66"
               transform="translate(878.17383)"
               id="use80"
               style="stroke-width:0.994734" />
            <use
               xlink:href="#ArialMT-74"
               transform="translate(905.95703)"
               id="use81"
               style="stroke-width:0.994734" />
            <use
               xlink:href="#ArialMT-29"
               transform="translate(933.74023)"
               id="use82"
               style="stroke-width:0.994734" />
          </g>
        </g>
      </g>
      <g
         id="patch_3"
         style="stroke-width:0.994734">
        <path
           d="M 73.832727,307.584 H 171.55483 V 41.472 H 73.832727 Z"
           clip-path="url(#p83177941b3)"
           style="opacity:0.3;fill:#87ceeb;stroke:#87ceeb;stroke-width:0.994734;stroke-linejoin:miter"
           id="path82" />
      </g>
      <g
         id="line2d_15"
         style="stroke-width:0.994734">
        <path
           d="m 73.832727,174.528 h 96.636303 l 1.0858,-120.96 h 69.49127 l 1.08581,241.92 h 34.74563 l 1.0858,-241.92 h 49.94686 l 1.0858,241.92 h 46.68945 l 1.0858,-241.92 h 21.71602 v 0"
           clip-path="url(#p83177941b3)"
           style="fill:none;stroke:#0173b2;stroke-width:1.4921;stroke-linecap:round"
           id="path83" />
      </g>
      <g
         id="line2d_16"
         style="stroke-width:0.994734">
        <path
           d="M 171.55483,307.584 V 41.472"
           clip-path="url(#p83177941b3)"
           style="fill:none;stroke:#87ceeb;stroke-width:1.4921;stroke-dasharray:5.52077, 2.38736;stroke-dashoffset:0"
           id="path84" />
      </g>
      <g
         id="patch_4"
         style="stroke-width:0.994734">
        <path
           d="M 57.6,307.584 V 41.472"
           style="fill:none;stroke:#262626;stroke-width:1.24342;stroke-linecap:square;stroke-linejoin:miter"
           id="path85" />
      </g>
      <g
         id="patch_5"
         style="stroke-width:0.994734">
        <path
           d="M 57.6,307.584 H 414.72"
           style="fill:none;stroke:#262626;stroke-width:1.24342;stroke-linecap:square;stroke-linejoin:miter"
           id="path86" />
      </g>
    </g>
  </g>
</svg>
